<svg width="106" height="120" viewBox="0 0 106 120" fill="none" xmlns="http://www.w3.org/2000/svg">
<path d="M13 1H96C100.971 1 105 5.02944 105 10V110C105 114.971 100.971 119 96 119H13C8.02944 119 4 114.971 4 110V10C4 5.02944 8.02944 1 13 1Z" fill="#F0F3F3"/>
<path d="M13 1H96C100.971 1 105 5.02944 105 10V110C105 114.971 100.971 119 96 119H13C8.02944 119 4 114.971 4 110V10C4 5.02944 8.02944 1 13 1Z" stroke="#333333" stroke-width="2"/>
<path d="M80.2002 75.0835C80.0013 76.6746 79.9019 77.9445 79.9019 78.8931C79.9019 79.8263 80.0166 80.6908 80.2461 81.4863C80.4756 82.2819 80.8045 82.9704 81.2329 83.5518C82.1509 84.791 83.3136 85.4106 84.7212 85.4106C87.4139 85.4106 88.7603 83.9266 88.7603 80.9585C88.7603 78.5718 87.3757 76.0397 84.6064 73.3623L82.2197 71.0444C80.1237 69.0249 78.6932 67.4032 77.9282 66.1792C76.4136 63.7619 75.6562 61.3599 75.6562 58.9731C75.6562 57.0301 76.2835 55.4007 77.5381 54.085C79.0527 52.4785 81.2329 51.6753 84.0786 51.6753C85.1955 51.6753 86.0369 51.7288 86.603 51.8359C87.6587 52.0348 88.3625 52.1343 88.7144 52.1343C89.6017 52.1343 90.2902 51.8589 90.7798 51.3081C90.9634 51.1092 91.1623 50.8491 91.3765 50.5278C92.4933 51.1551 93.0518 53.4577 93.0518 57.4355C93.0518 59.9753 92.7993 61.8494 92.2944 63.0581C92.1261 63.4712 91.9349 63.7313 91.7207 63.8384C91.4759 61.5282 90.7262 59.4627 89.4717 57.6421C88.0029 55.5002 86.3047 54.4292 84.377 54.4292C82.7246 54.4292 81.7072 55.1865 81.3247 56.7012C81.2176 57.1296 81.1641 57.665 81.1641 58.3076C81.1641 58.9349 81.3553 59.654 81.7378 60.4648C82.1203 61.2757 82.6175 62.0866 83.2295 62.8975C83.8568 63.693 84.5758 64.4963 85.3867 65.3071C87.8346 67.8162 89.4564 69.5145 90.252 70.4019C91.0628 71.2892 91.7819 72.2072 92.4092 73.1558C93.7861 75.2824 94.4746 77.3402 94.4746 79.3291C94.4746 81.7311 93.5413 83.7201 91.6748 85.2959C89.7471 86.9023 87.2686 87.7056 84.2393 87.7056C81.7301 87.7056 79.5729 87.0783 77.7676 85.8237C75.7786 84.4468 74.7842 82.6261 74.7842 80.3618C75.3809 78.2352 76.6813 76.6746 78.6855 75.6802C79.221 75.4048 79.7259 75.2059 80.2002 75.0835Z" fill="#333333"/>
<path d="M76.1907 51.2119C75.0279 51.2119 74.4465 52.26 74.4465 54.356V57.2476C74.4465 62.5718 74.5001 65.8612 74.6072 67.1158C74.7296 68.355 74.8443 69.2194 74.9514 69.709C75.0738 70.1986 75.2345 70.6346 75.4333 71.0171C75.7546 71.6444 76.3972 72.3099 77.3611 73.0137H67.6077C68.1737 71.8815 68.518 70.9177 68.6404 70.1221C68.7628 69.3265 68.8546 68.4851 68.9158 67.5977C69.0382 65.7923 69.0994 63.3674 69.0994 60.3228C69.0994 56.6356 69.0382 53.2697 68.9158 50.2251L68.6633 43.9141C68.6021 42.3229 68.4644 41.2137 68.2502 40.5865C67.9137 39.592 67.3629 38.697 66.5979 37.9014H79.4265C82.8842 37.9014 85.3857 38.2686 86.9309 39.003C88.568 39.7679 89.3865 41.076 89.3865 42.9273C89.3865 45.1916 88.415 47.0658 86.4719 48.5498C84.177 50.3246 80.7499 51.2119 76.1907 51.2119ZM81.905 47.0122C82.3946 46.5227 82.7542 46.0101 82.9836 45.4746C83.2131 44.9239 83.3279 44.419 83.3279 43.96C83.3279 43.4857 83.259 43.0191 83.1213 42.5601C82.9989 42.1011 82.7465 41.6957 82.364 41.3438C81.5072 40.5788 80.0385 40.1963 77.9578 40.1963C76.7032 40.1963 75.8847 40.3493 75.5022 40.6553C74.7984 41.2367 74.4465 42.3765 74.4465 44.0747C74.4465 45.9872 74.5995 47.1729 74.9055 47.6319C75.2115 48.0756 75.5634 48.3662 75.9612 48.5039C76.359 48.6263 76.9633 48.6875 77.7742 48.6875C78.6003 48.6875 79.373 48.5269 80.092 48.2056C80.8264 47.8843 81.4307 47.4865 81.905 47.0122Z" fill="#333333"/>
<path d="M66.6147 50.0232C66.6147 52.5935 64.7329 54.7048 60.9692 56.3571C64.0903 56.9385 66.1252 58.3537 67.0737 60.6028C67.3797 61.3524 67.5327 62.3469 67.5327 63.5862C67.5327 64.8101 67.3491 66.1412 66.9819 67.5793C66.63 69.0022 66.064 70.3485 65.2837 71.6184C64.5187 72.8729 63.5396 74.0204 62.3462 75.0608C61.1528 76.1011 59.7223 76.9961 58.0547 77.7458C54.5511 79.3217 50.2214 80.1096 45.0654 80.1096C45.555 78.9468 45.8381 77.9753 45.9146 77.195C46.0063 76.4148 46.0828 75.5809 46.144 74.6936C46.2664 72.8882 46.3276 70.4633 46.3276 67.4187C46.3276 63.7315 46.2664 60.3656 46.144 57.321L45.8916 51.01C45.8304 49.4188 45.6927 48.3096 45.4785 47.6823C45.1419 46.6879 44.5911 45.7929 43.8262 44.9973H55.9663C59.6688 44.9973 62.3462 45.3645 63.9985 46.0988C65.7427 46.8638 66.6147 48.1719 66.6147 50.0232ZM51.6748 61.9109L51.6978 73.5691C51.6978 74.4411 51.7896 75.099 51.9731 75.5427C52.172 75.9864 52.5622 76.2082 53.1436 76.2082C55.4997 76.2082 57.4657 75.0914 59.0415 72.8576C60.6632 70.5627 61.4741 67.5793 61.4741 63.9074C61.4741 62.0868 61.0687 60.7328 60.2578 59.8454C59.1868 58.6674 57.2668 58.0783 54.4976 58.0783C53.8703 58.0783 53.373 58.1089 53.0059 58.1701C52.6387 58.216 52.3556 58.3614 52.1567 58.6062C51.8354 59.004 51.6748 60.1055 51.6748 61.9109ZM59.248 53.9475C59.7223 53.4885 60.0589 52.9989 60.2578 52.4787C60.4567 51.9585 60.5562 51.4766 60.5562 51.0329C60.5562 50.5739 60.4873 50.115 60.3496 49.656C60.2272 49.197 59.9748 48.7916 59.5923 48.4397C58.7355 47.6747 57.2668 47.2922 55.186 47.2922C53.6102 47.2922 52.6693 47.4529 52.3633 47.7741C52.0573 48.0801 51.866 48.4932 51.7896 49.0134C51.7131 49.5336 51.6748 50.2068 51.6748 51.0329C51.6748 51.8438 51.6978 52.5246 51.7437 53.0754C51.7896 53.6109 51.9119 54.0622 52.1108 54.4294C52.4933 55.1791 53.2736 55.5539 54.4517 55.5539C55.645 55.5539 56.6242 55.4009 57.3892 55.0949C58.1694 54.789 58.7891 54.4065 59.248 53.9475Z" fill="#333333"/>
<path d="M34.3862 52.5391V57.2896C34.3862 62.1548 34.4398 65.1535 34.5469 66.2856C34.6693 67.4025 34.784 68.2057 34.8911 68.6953C34.9982 69.1849 35.1589 69.6209 35.373 70.0034C35.7096 70.6307 36.3522 71.2962 37.3008 72H25.6655C26.8742 71.2503 27.6621 70.6001 28.0293 70.0493C28.7331 69.009 29.085 67.6626 29.085 66.0103C29.0697 61.9406 29.062 58.2534 29.062 54.9487V42.9004C29.062 40.6208 28.7025 38.9684 27.9834 37.9434C27.708 37.5762 27.3791 37.2243 26.9966 36.8877H44.2544C45.2948 37.2549 46.0062 38.54 46.3887 40.7432C46.4958 41.3551 46.5493 41.9518 46.5493 42.5332C46.5493 43.7266 46.3734 44.6751 46.0215 45.3789L44.7822 42.9004C43.9561 41.2786 42.7703 40.1924 41.2251 39.6416C40.3683 39.3356 39.4045 39.1826 38.3335 39.1826C37.2625 39.1826 36.4976 39.2209 36.0386 39.2974C35.5796 39.3586 35.2277 39.5192 34.9829 39.7793C34.5851 40.223 34.3862 41.0721 34.3862 42.3267C34.3862 43.5659 34.4168 44.4303 34.478 44.9199C34.5392 45.3942 34.6846 45.7843 34.9141 46.0903C35.3883 46.687 36.3905 46.9854 37.9204 46.9854H45.1265C44.7746 47.8727 44.415 48.5 44.0479 48.8672C43.3135 49.6016 42.319 49.9688 41.0645 49.9688C40.5749 49.9688 40.1082 49.9152 39.6646 49.8081C38.8384 49.6092 38.1117 49.5098 37.4844 49.5098C36.8571 49.5098 36.3369 49.571 35.9238 49.6934C35.526 49.8005 35.2124 49.9764 34.9829 50.2212C34.5851 50.6496 34.3862 51.4222 34.3862 52.5391Z" fill="#333333"/>
<path fill-rule="evenodd" clip-rule="evenodd" d="M2.7223 6.38049C1.00706 8.81919 0 11.792 0 15V17.691C0.71802 16.8897 1.76091 16.3855 2.92157 16.3855C2.96488 16.3855 3 16.4206 3 16.4639V25.6925C3 25.7358 2.96488 25.7709 2.92157 25.7709C1.76091 25.7709 0.718021 25.2667 0 24.4654V37.0765C0.71802 36.2752 1.76091 35.7709 2.92157 35.7709C2.96488 35.7709 3 35.806 3 35.8494V45.078C3 45.1213 2.96488 45.1564 2.92157 45.1564C1.76091 45.1564 0.718021 44.6522 0 43.8508V56.462C0.71802 55.6606 1.76091 55.1564 2.92157 55.1564C2.96488 55.1564 3 55.1915 3 55.2348V64.4634C3 64.5068 2.96488 64.5419 2.92157 64.5419C1.76091 64.5419 0.718021 64.0376 0 63.2363V75.8474C0.71802 75.0461 1.76091 74.5419 2.92157 74.5419C2.96488 74.5419 3 74.577 3 74.6203V83.8489C3 83.8922 2.96488 83.9273 2.92157 83.9273C1.76091 83.9273 0.718021 83.4231 0 82.6218V95.2329C0.71802 94.4316 1.76091 93.9273 2.92157 93.9273C2.96488 93.9273 3 93.9625 3 94.0058V103.234C3 103.278 2.96488 103.313 2.92157 103.313C1.76091 103.313 0.718021 102.809 0 102.007V105C0 108.083 0.930255 110.949 2.52541 113.333C2.65569 113.32 2.78784 113.313 2.92157 113.313C2.96488 113.313 3 113.348 3 113.391V114.001C5.73669 117.644 10.0932 120 15 120V0C10.0932 0 5.73669 2.35603 3 5.99854V6.30704C3 6.35035 2.96488 6.38547 2.92157 6.38547C2.85474 6.38547 2.7883 6.3838 2.7223 6.38049Z" fill="#333333"/>
</svg>
